<svg width="14" height="15" viewBox="0 0 14 15" fill="none" xmlns="http://www.w3.org/2000/svg">
<path d="M0.601562 5.41409C0.601562 5.15141 0.735263 4.90497 0.960369 4.75274L6.50704 1.00173C6.80311 0.801507 7.20002 0.801507 7.49609 1.00173L13.0428 4.75274C13.2679 4.90497 13.4016 5.15141 13.4016 5.41409V12.4343C13.4016 13.1066 12.8285 13.6516 12.1216 13.6516H1.88156C1.17464 13.6516 0.601562 13.1066 0.601562 12.4343V5.41409Z" stroke="#666666" stroke-linecap="round" stroke-linejoin="round"/>
<path d="M8.60156 8.05156C8.60156 8.93522 7.88522 9.65156 7.00156 9.65156C6.11791 9.65156 5.40156 8.93522 5.40156 8.05156C5.40156 7.16791 6.11791 6.45156 7.00156 6.45156C7.88522 6.45156 8.60156 7.16791 8.60156 8.05156Z" stroke="#666666" stroke-linecap="round" stroke-linejoin="round"/>
</svg>
