<svg width="27" height="28" viewBox="0 0 27 28" fill="none" xmlns="http://www.w3.org/2000/svg">
<path d="M0 14C0 7.63604 0 4.45406 1.97703 2.47703C3.95406 0.5 7.13604 0.5 13.5 0.5C19.864 0.5 23.0459 0.5 25.023 2.47703C27 4.45406 27 7.63604 27 14C27 20.364 27 23.5459 25.023 25.523C23.0459 27.5 19.864 27.5 13.5 27.5C7.13604 27.5 3.95406 27.5 1.97703 25.523C0 23.5459 0 20.364 0 14Z" fill="#0066FF"/>
<g filter="url(#filter0_d_7_5364)">
<path d="M13.3923 7.29343L6.79577 13.6895C6.76649 13.7179 6.75 13.7567 6.75 13.7972V18.9112C6.75 19.0452 6.91407 19.1128 7.01108 19.0188L13.3923 12.8314C13.452 12.7735 13.5479 12.7735 13.6077 12.8314L19.9889 19.0188C20.0859 19.1128 20.25 19.0452 20.25 18.9112V13.7972C20.25 13.7567 20.2335 13.7179 20.2042 13.6895L13.6077 7.29343C13.5479 7.23552 13.452 7.23552 13.3923 7.29343Z" stroke="white" stroke-width="1.5"/>
</g>
<defs>
<filter id="filter0_d_7_5364" x="4.5" y="6.5" width="18" height="16.3116" filterUnits="userSpaceOnUse" color-interpolation-filters="sRGB">
<feFlood flood-opacity="0" result="BackgroundImageFix"/>
<feColorMatrix in="SourceAlpha" type="matrix" values="0 0 0 0 0 0 0 0 0 0 0 0 0 0 0 0 0 0 127 0" result="hardAlpha"/>
<feOffset dy="1.5"/>
<feGaussianBlur stdDeviation="0.75"/>
<feColorMatrix type="matrix" values="0 0 0 0 0 0 0 0 0 0 0 0 0 0 0 0 0 0 0.25 0"/>
<feBlend mode="normal" in2="BackgroundImageFix" result="effect1_dropShadow_7_5364"/>
<feBlend mode="normal" in="SourceGraphic" in2="effect1_dropShadow_7_5364" result="shape"/>
</filter>
</defs>
</svg>
